<?xml version="1.0" encoding="utf-8"?>
<!-- Generator: Adobe Illustrator 27.5.0, SVG Export Plug-In . SVG Version: 6.00 Build 0)  -->
<svg version="1.1" xmlns="http://www.w3.org/2000/svg" xmlns:xlink="http://www.w3.org/1999/xlink" x="0px" y="0px"
	 viewBox="0 0 500 500" style="enable-background:new 0 0 500 500;" xml:space="preserve">
<g id="background">
	<rect style="fill:#FFFFFF;" width="500" height="500"/>
</g>
<g id="objects">
	<g>
		<defs>
			<rect id="SVGID_1_" width="500" height="500"/>
		</defs>
		<clipPath id="SVGID_00000173155037959250702570000010371699611073887164_">
			<use xlink:href="#SVGID_1_"  style="overflow:visible;"/>
		</clipPath>
		
			<path style="clip-path:url(#SVGID_00000173155037959250702570000010371699611073887164_);fill:none;stroke:#000000;stroke-miterlimit:10;" d="
			M469.289,360.884C450.06,380.25,426.06,392.25,401.06,402.25c-16,6-34,10-50.63,10.162"/>
		
			<path style="clip-path:url(#SVGID_00000173155037959250702570000010371699611073887164_);fill:none;stroke:#000000;stroke-miterlimit:10;" d="
			M486.109,332.162c-3.305,8.945-7.908,17.428-13.748,24.974"/>
		
			<path style="clip-path:url(#SVGID_00000173155037959250702570000010371699611073887164_);fill:none;stroke:#000000;stroke-miterlimit:10;" d="
			M493.254,298.209c-0.502,10.073-2.365,20.084-5.588,29.644"/>
		
			<path style="clip-path:url(#SVGID_00000173155037959250702570000010371699611073887164_);fill:none;stroke:#000000;stroke-miterlimit:10;" d="
			M489.54,264.365c3.047,9.542,4.152,19.651,3.901,29.64"/>
		
			<path style="clip-path:url(#SVGID_00000173155037959250702570000010371699611073887164_);fill:none;stroke:#000000;stroke-miterlimit:10;" d="
			M466.862,236.399c9.875,4.929,17.034,13.533,21.134,23.681"/>
		
			<path style="clip-path:url(#SVGID_00000173155037959250702570000010371699611073887164_);fill:none;stroke:#000000;stroke-miterlimit:10;" d="
			M430.616,238.57c8.307-8.414,21.635-7.885,31.965-4.03"/>
		
			<path style="clip-path:url(#SVGID_00000173155037959250702570000010371699611073887164_);fill:none;stroke:#000000;stroke-miterlimit:10;" d="
			M449.002,248.887c-4.164,3.948-10.044,7.518-15.892,5.127c-4.641-1.898-6.712-6.947-4.988-11.619"/>
		
			<path style="clip-path:url(#SVGID_00000173155037959250702570000010371699611073887164_);fill:none;stroke:#000000;stroke-miterlimit:10;" d="
			M463.532,211.137c-0.301,12.429-3.364,24.905-11.532,34.565"/>
		
			<path style="clip-path:url(#SVGID_00000173155037959250702570000010371699611073887164_);fill:none;stroke:#000000;stroke-miterlimit:10;" d="
			M459.977,181.034c2.09,8.662,3.429,17.553,3.569,26.472"/>
		
			<path style="clip-path:url(#SVGID_00000173155037959250702570000010371699611073887164_);fill:none;stroke:#000000;stroke-miterlimit:10;" d="
			M249.573,48.799c6.487-0.549,12.487,1.451,18.487,1.451c15,2,29,5,44,9s30,10,44,17c19,9,39,18,55,34c1,1,3,1,4,2
			c19,18,38,37,43.472,63.321"/>
		
			<path style="clip-path:url(#SVGID_00000173155037959250702570000010371699611073887164_);fill:none;stroke:#000000;stroke-miterlimit:10;" d="
			M213.779,47.168c10.473,0.011,20.947,0.421,31.388,1.254"/>
		
			<path style="clip-path:url(#SVGID_00000173155037959250702570000010371699611073887164_);fill:none;stroke:#000000;stroke-miterlimit:10;" d="
			M179.204,49.966c9.9-1.514,19.893-2.386,29.902-2.695"/>
		
			<path style="clip-path:url(#SVGID_00000173155037959250702570000010371699611073887164_);fill:none;stroke:#000000;stroke-miterlimit:10;" d="
			M145.087,58.267c9.658-3.302,19.583-5.803,29.636-7.564"/>
		
			<path style="clip-path:url(#SVGID_00000173155037959250702570000010371699611073887164_);fill:none;stroke:#000000;stroke-miterlimit:10;" d="
			M111.964,72.887c8.887-4.983,18.18-9.239,27.748-12.741"/>
		
			<path style="clip-path:url(#SVGID_00000173155037959250702570000010371699611073887164_);fill:none;stroke:#000000;stroke-miterlimit:10;" d="
			M38.259,146.694c7.851-10.517,13.815-22.381,22.594-32.213c8.542-9.566,18.045-18.313,28.018-26.361
			c5.955-4.805,12.222-8.973,18.835-12.821"/>
		
			<path style="clip-path:url(#SVGID_00000173155037959250702570000010371699611073887164_);fill:none;stroke:#000000;stroke-miterlimit:10;" d="
			M25.477,177.565c3.452-8.527,6.506-17.216,10.284-25.609"/>
		
			<path style="clip-path:url(#SVGID_00000173155037959250702570000010371699611073887164_);fill:none;stroke:#000000;stroke-miterlimit:10;" d="
			M18.475,211.902c0.969-10.043,2.856-19.994,5.613-29.699"/>
		
			<path style="clip-path:url(#SVGID_00000173155037959250702570000010371699611073887164_);fill:none;stroke:#000000;stroke-miterlimit:10;" d="
			M18.658,245.362c-1.027-9.879-1.191-19.848-0.486-29.755"/>
		
			<path style="clip-path:url(#SVGID_00000173155037959250702570000010371699611073887164_);fill:none;stroke:#000000;stroke-miterlimit:10;" d="
			M24.879,276.514c-2.56-8.533-4.433-17.269-5.619-26.098"/>
		
			<path style="clip-path:url(#SVGID_00000173155037959250702570000010371699611073887164_);fill:none;stroke:#000000;stroke-miterlimit:10;" d="
			M36.211,304.471c-3.895-7.474-7.181-15.262-9.844-23.257"/>
		
			<path style="clip-path:url(#SVGID_00000173155037959250702570000010371699611073887164_);fill:none;stroke:#000000;stroke-miterlimit:10;" d="
			M52.295,329.096c-5.158-6.397-9.766-13.232-13.793-20.394"/>
		<path style="clip-path:url(#SVGID_00000173155037959250702570000010371699611073887164_);fill:#CBCBCB;" d="M346.06,330.794
			c0,0,17.978-38.152,105-9.251c11.493,3.817-16.177,173.707-16.177,173.707h-19.038L346.06,330.794z"/>
		
			<rect x="351.3" y="485.245" style="clip-path:url(#SVGID_00000173155037959250702570000010371699611073887164_);fill:#CBCBCB;" width="82.582" height="9.768"/>
		<path style="clip-path:url(#SVGID_00000173155037959250702570000010371699611073887164_);fill:#534741;" d="M432.286,445.25
			c0,0-0.227,35-10.227,39c-4.642,1.857-78,13-78,13l-5,55h-38c0,0,9-83,14-85s80.793-22.836,80.793-22.836L432.286,445.25z"/>
		<path style="clip-path:url(#SVGID_00000173155037959250702570000010371699611073887164_);fill:#534741;" d="M405.06,444.25
			c0,0-24,39-29,39s-85,12-85,12l-5,55h-38c0,0,9-83,14-85s80.793-22.836,80.793-22.836L405.06,444.25z"/>
		
			<path style="clip-path:url(#SVGID_00000173155037959250702570000010371699611073887164_);fill:none;stroke:#000000;stroke-linecap:round;stroke-miterlimit:10;" d="
			M372.56,450.75c0,0-53,14-59,19c-3.073,2.561-12.5,82.5-12.5,82.5"/>
		
			<rect x="441.843" y="428.533" transform="matrix(-1 -1.224647e-16 1.224647e-16 -1 893.8169 946.7823)" style="clip-path:url(#SVGID_00000173155037959250702570000010371699611073887164_);fill:#B2B2B2;" width="10.131" height="89.717"/>
		
			<rect x="68.243" y="450.25" transform="matrix(-1 -1.224647e-16 1.224647e-16 -1 145.1698 949.4998)" style="clip-path:url(#SVGID_00000173155037959250702570000010371699611073887164_);fill:#534741;" width="8.684" height="49"/>
		<path style="clip-path:url(#SVGID_00000173155037959250702570000010371699611073887164_);fill:#534741;" d="M49.428,342.068
			c0,0-22.433-1.447-28.223,6.513c-5.789,7.96,18.091,105.654,18.091,105.654h15.515L49.428,342.068z"/>
		
			<rect x="39.297" y="446.274" transform="matrix(-1 -1.224647e-16 1.224647e-16 -1 145.8935 900.509)" style="clip-path:url(#SVGID_00000173155037959250702570000010371699611073887164_);fill:#534741;" width="67.3" height="7.96"/>
		<path style="clip-path:url(#SVGID_00000173155037959250702570000010371699611073887164_);fill:#0468BF;" d="M42.417,417.65
			c0,0-4.386,24.885,3.393,30.071c13.026,8.684,42.861,3.593,54.274,10.855c12.159,7.737,18.707,48.485,18.707,48.485h19.647
			c0,0-6.144-53.007-19.539-66.576c-10.914-11.056-53.996-19.539-53.996-19.539L42.417,417.65z"/>
		<path style="clip-path:url(#SVGID_00000173155037959250702570000010371699611073887164_);fill:#0468BF;" d="M71.363,415.479
			c0,0-5.02,29.348,2.839,34.413s43.415-0.749,54.828,6.513c12.159,7.737,18.707,48.485,18.707,48.485h19.647
			c0,0-6.144-53.007-19.539-66.576c-10.914-11.056-53.996-19.539-53.996-19.539L71.363,415.479z"/>
		
			<path style="clip-path:url(#SVGID_00000173155037959250702570000010371699611073887164_);fill:none;stroke:#000000;stroke-linecap:round;stroke-miterlimit:10;" d="
			M88.777,427.456c6.127,1.992,12.064,4.506,18.075,6.825c9.514,3.671,15.348,10.41,16.751,13.078
			c6.305,11.995,8.684,24.604,11.606,39.755"/>
		
			<path style="clip-path:url(#SVGID_00000173155037959250702570000010371699611073887164_);fill:none;stroke:#000000;stroke-linecap:round;stroke-miterlimit:10;" d="
			M47.577,428.099c-3.941,16.429,6.554,16.367,17.409,17.814c16.955,2.261,38.473,2.069,38.851,9.095
			c1.206-0.109,2.368-0.656,3.219-1.517c0.026,0.651,0.052,1.302,0.078,1.953c1.095-0.072,2.189-0.143,3.284-0.215
			c3.742,17.512,6.924,38.495,14.27,56.576"/>
		<g style="clip-path:url(#SVGID_00000173155037959250702570000010371699611073887164_);">
			<circle style="fill:#0468BF;stroke:#0468BF;stroke-miterlimit:10;" cx="262.06" cy="312.25" r="8.5"/>
			<path style="fill:#0468BF;stroke:#0468BF;stroke-miterlimit:10;" d="M285.56,315.75v-7h-4.785
				c-0.466-2.667-1.497-5.142-2.967-7.298l3.344-3.344l-4.95-4.95l-3.343,3.343c-2.152-1.468-4.626-2.5-7.299-2.967v-4.784h-7v4.879
				c-2.598,0.528-5.004,1.593-7.094,3.077l-3.548-3.548l-4.95,4.95l3.644,3.644c-1.361,2.08-2.315,4.451-2.762,6.998h-5.29v7h5.38
				c0.505,2.476,1.495,4.778,2.873,6.798l-3.844,3.844l4.95,4.95l3.843-3.843c2.017,1.376,4.318,2.367,6.799,2.87v5.381h7v-5.285
				c2.545-0.445,4.917-1.4,7.002-2.763l3.64,3.641l4.95-4.95l-3.548-3.548c1.482-2.087,2.547-4.491,3.075-7.094H285.56z
				 M262.06,323.5c-6.213,0-11.25-5.037-11.25-11.25S255.847,301,262.06,301c6.213,0,11.25,5.037,11.25,11.25
				S268.273,323.5,262.06,323.5z"/>
		</g>
		<path style="clip-path:url(#SVGID_00000173155037959250702570000010371699611073887164_);fill:#DC4335;" d="M235.96,298.321
			v-10.125h-6.837c-0.667-3.858-2.139-7.438-4.24-10.556l4.778-4.838l-7.072-7.16l-4.776,4.835
			c-3.075-2.123-6.61-3.616-10.429-4.292v-6.919h-10.001v7.058c-3.712,0.764-7.149,2.304-10.135,4.451l-5.07-5.133l-7.072,7.16
			l5.206,5.271c-1.945,3.009-3.308,6.437-3.946,10.123h-7.558v10.125h7.686c0.721,3.581,2.136,6.911,4.105,9.833l-5.493,5.561
			l7.072,7.16l5.49-5.559c2.882,1.99,6.169,3.423,9.714,4.152v7.783h10.001v-7.645c3.636-0.644,7.025-2.025,10.003-3.997
			l5.201,5.266l7.072-7.16l-5.069-5.132c2.118-3.018,3.639-6.496,4.394-10.262H235.96z M202.385,307.439
			c-7.832,0-14.181-6.349-14.181-14.181c0-7.832,6.349-14.181,14.181-14.181s14.181,6.349,14.181,14.181
			C216.565,301.09,210.217,307.439,202.385,307.439z"/>
		<path style="clip-path:url(#SVGID_00000173155037959250702570000010371699611073887164_);fill:#FACB42;" d="M279.496,264.443
			l-0.378-8.104l-5.472,0.255c-0.677-3.063-1.99-5.873-3.787-8.291l3.644-4.05l-5.927-5.467l-3.642,4.048
			c-2.54-1.585-5.425-2.648-8.507-3.046l-0.258-5.538l-8.005,0.373l0.263,5.649c-2.943,0.75-5.636,2.11-7.946,3.94l-4.249-3.919
			l-5.393,5.994l4.363,4.024c-1.444,2.481-2.407,5.276-2.781,8.249l-6.049,0.282l0.378,8.104l6.152-0.287
			c0.711,2.839,1.968,5.451,3.652,7.717l-4.189,4.656l5.927,5.467l4.187-4.654c2.381,1.485,5.065,2.51,7.93,2.961l0.29,6.229
			l8.005-0.373l-0.285-6.119c2.886-0.651,5.547-1.883,7.857-3.572l4.359,4.021l5.393-5.994l-4.248-3.918
			c1.582-2.495,2.67-5.335,3.134-8.377L279.496,264.443z M252.963,272.993c-6.268,0.292-11.587-4.553-11.879-10.821
			c-0.292-6.268,4.553-11.587,10.821-11.879c6.268-0.292,11.587,4.553,11.879,10.821
			C264.076,267.382,259.232,272.701,252.963,272.993z"/>
		
			<rect x="247.56" y="400.282" style="clip-path:url(#SVGID_00000173155037959250702570000010371699611073887164_);fill:#B2B2B2;" width="255.5" height="44.968"/>
		
			<rect x="270.044" y="425.577" style="clip-path:url(#SVGID_00000173155037959250702570000010371699611073887164_);fill:#E5E5E5;" width="114.464" height="6.643"/>
		<path style="clip-path:url(#SVGID_00000173155037959250702570000010371699611073887164_);fill:#EECCC1;" d="M383.741,405.392
			c0,0-13.271,5.166-15.33,6.132c-3.703,1.737-13.091,10.578-13.091,10.578s-1.478,1.101-0.687,1.925
			c1.582,1.649,16.333-8.415,16.333-8.415s-16.096,12.009-14.027,14.12c1.6,1.632,16.582-10.032,16.582-10.032
			s-11.425,10.785-10.325,12.263c1.365,1.833,12.88-8.686,12.88-8.686s-8.171,7.652-7.552,8.958c0.79,1.665,12.439-7.5,12.439-7.5
			l10.096-4.485L383.741,405.392z"/>
		
			<path style="clip-path:url(#SVGID_00000173155037959250702570000010371699611073887164_);fill:none;stroke:#000000;stroke-linecap:round;stroke-miterlimit:10;" d="
			M383.741,405.392c0,0-13.271,5.166-15.33,6.132c-3.703,1.737-13.091,10.578-13.091,10.578s-1.478,1.101-0.687,1.925
			c1.582,1.649,16.333-8.415,16.333-8.415s-16.096,12.009-14.027,14.12c1.6,1.632,16.582-10.032,16.582-10.032
			s-11.425,10.785-10.325,12.263c1.365,1.833,12.88-8.686,12.88-8.686s-8.171,7.652-7.552,8.958c0.79,1.665,12.439-7.5,12.439-7.5
			l9.596-3.985"/>
		<path style="clip-path:url(#SVGID_00000173155037959250702570000010371699611073887164_);fill:#0468BF;" d="M461.669,413.313
			c-9.198,10.731-70.609,7.938-70.609,7.938l-7.318-15.858l27.594-4.088h1.022h-98.112c0,0,18.141-65.663,23.25-70.262
			c3.148-2.831,19.674-5.861,31.902-7.767c7.624-1.191,13.577-1.942,13.577-1.942s6.025,0.496,13.797,1.252
			c13.097,1.272,31.161,3.275,33.726,4.88C434.586,330.02,468.322,405.55,461.669,413.313z"/>
		
			<polyline style="clip-path:url(#SVGID_00000173155037959250702570000010371699611073887164_);fill:none;stroke:#000000;stroke-linecap:round;stroke-miterlimit:10;" points="
			419,359.913 432.286,398.238 383.741,405.392 		"/>
		
			<rect x="257.269" y="372.944" style="clip-path:url(#SVGID_00000173155037959250702570000010371699611073887164_);fill:#E5E5E5;" width="91.469" height="59.276"/>
		
			<rect x="294.061" y="395.939" style="clip-path:url(#SVGID_00000173155037959250702570000010371699611073887164_);fill:#FFFFFF;" width="13.286" height="13.286"/>
		<g style="clip-path:url(#SVGID_00000173155037959250702570000010371699611073887164_);">
			<path style="fill:#F1F1F1;stroke:#000000;stroke-linecap:round;stroke-miterlimit:10;" d="M40.56,111.743v93.265
				c0,4.65,2.165,8.803,5.538,11.478c2.508,2.023,5.692,3.219,9.17,3.219h119.546c8.129,0,14.708-6.579,14.708-14.696v-93.265
				c0-8.129-6.579-14.708-14.708-14.708H55.268C47.139,97.035,40.56,103.614,40.56,111.743z"/>
			<path style="fill:#534741;" d="M122.6,124.002c-0.236-0.77-0.574-1.516-0.676-2.314c-0.102-0.799,0.084-1.697,0.718-2.194
				c0.081-0.064,0.17-0.12,0.271-0.144c0.398-0.093,0.701,0.344,0.867,0.717c1.532,3.436,2.397,7.152,2.445,10.911
				c0.011,0.881-0.969,14.419-2.684,13.42c-1.238-0.722-0.094-13.318-0.212-14.566C123.144,127.884,123.179,125.891,122.6,124.002z"
				/>
			<path style="fill:#ECB5A1;" d="M111.769,112.876c-15.287-0.913-15.167,43.288,2.825,44.495S128.831,113.896,111.769,112.876z"/>
			<path style="fill:#52A8F2;" d="M46.098,216.486c2.508,2.023,5.692,3.219,9.17,3.219h111.854
				c-3.23-14.069-8.756-34.327-14.874-39.841c-9.052-8.153-19.761-12.637-30.469-14.306c-6.674-1.041-11.88-1.704-11.88-1.704
				s-5.277,0.438-12.081,1.1c-11.466,1.112-26.079,7.703-28.398,8.993C63.243,177.379,52.712,198.24,46.098,216.486z"/>
			<path style="fill:#ECB5A1;" d="M100.28,164.717V140.82l18.564,2.672v21.617c0.937,0.14,1.921,0.29,2.939,0.449
				c-1.619,1.906-4.505,6.128-11.215,6.576c-10.266,0.684-11.053-5.426-12.749-7.18C98.665,164.871,99.488,164.792,100.28,164.717z"
				/>
			<path style="fill:#534741;" d="M123.321,121.489c-0.665,1.003-1.938,1.44-3.141,1.488c-0.943,0.038-1.898-0.126-2.755-0.521
				c-0.864-0.398-1.606-1.019-2.441-1.474c-0.835-0.456-1.846-0.742-2.735-0.405c-1.178,0.447-1.937,1.897-3.197,1.886
				c-1.129-0.009-1.92-1.222-3.035-1.404c-0.853-0.139-1.688,0.369-2.277,1.001c-0.902,0.968-1.425,2.281-1.437,3.605
				c-0.007,0.886,0.204,1.76,0.248,2.645c0.062,1.261-0.218,2.511-0.497,3.742c-0.101,0.448-0.208,0.909-0.47,1.287
				c-0.262,0.378-0.72,0.658-1.172,0.572c-0.795-0.15-0.999-1.178-1.02-1.987c-0.076-2.866-0.073-5.734-0.069-8.601
				c0.002-1.245,0.005-2.508,0.338-3.708c0.242-0.873,0.651-1.689,1.058-2.499c0.441-0.877,0.887-1.763,1.514-2.518
				c1.265-1.524,3.147-2.384,5.004-3.071c1.876-0.694,3.819-1.267,5.815-1.387c1.996-0.12,4.063,0.241,5.76,1.3
				C121.532,113.141,125.583,118.078,123.321,121.489z"/>
			<path style="fill:#ECB5A1;" d="M102.516,132.992c0,0-2.908-3.355-5.368-1.789c-4.038,2.57-0.224,8.276,1.566,9.618
				c1.789,1.342,3.802,0.671,3.802,0.671V132.992z"/>
			<path style="fill:none;stroke:#000000;stroke-linecap:round;stroke-miterlimit:10;" d="M116.16,132.992
				c0.044,3.436,0.895,6.71,1.937,7.922c0.213,0.248-1.591,0.279-2.392,0.207"/>
			<path style="fill:none;stroke:#000000;stroke-linecap:round;stroke-miterlimit:10;" d="M112.825,130.423
				c-1.939-1.061-4.418-1.061-6.358-0.001"/>
			<path style="fill:none;stroke:#000000;stroke-linecap:round;stroke-miterlimit:10;" d="M118.771,130.319
				c1.55-0.603,3.204-0.906,5.441-0.011"/>
			<path d="M119.379,148.055c0.329,0.453-0.262,4.594-3.22,4.003c-2.958-0.592-3.55-2.367-3.246-4.297L119.379,148.055z"/>
			<path style="fill:none;stroke:#000000;stroke-linecap:round;stroke-miterlimit:10;" d="M97.255,133.803
				c-0.191,0.59-0.042,1.232,0.152,1.821c0.509,1.543,1.365,3.021,2.674,3.983"/>
			<path style="fill:none;stroke:#000000;stroke-linecap:round;stroke-miterlimit:10;" d="M100.651,136.762
				c-0.639,0.055-1.179,0.621-1.26,1.258c-0.081,0.637,0.268,1.292,0.811,1.633"/>
			<path d="M109.897,135.452c0,0.618,0.401,1.118,0.895,1.118c0.494,0,0.895-0.501,0.895-1.118c0-0.618-0.4-1.118-0.895-1.118
				C110.298,134.333,109.897,134.834,109.897,135.452z"/>
			<path d="M119.962,135.228c0,0.618,0.4,1.118,0.895,1.118s0.895-0.501,0.895-1.118c0-0.618-0.401-1.118-0.895-1.118
				S119.962,134.611,119.962,135.228z"/>
			<path style="fill:none;stroke:#000000;stroke-linecap:round;stroke-miterlimit:10;" d="M106.464,152.889
				c2.116,2.583,4.82,4.26,8.13,4.482c1.553,0.104,2.943-0.133,4.177-0.655"/>
			
				<line style="fill:none;stroke:#000000;stroke-linecap:round;stroke-miterlimit:10;" x1="136.961" y1="197.63" x2="142.597" y2="220.095"/>
			
				<line style="fill:none;stroke:#000000;stroke-linecap:round;stroke-miterlimit:10;" x1="76.334" y1="197.63" x2="70.698" y2="220.095"/>
		</g>
		
			<rect x="126.33" y="272.107" style="clip-path:url(#SVGID_00000173155037959250702570000010371699611073887164_);fill:#52A8F2;" width="23.73" height="3.619"/>
		
			<rect x="126.33" y="278.892" style="clip-path:url(#SVGID_00000173155037959250702570000010371699611073887164_);fill:#52A8F2;" width="21.598" height="3.619"/>
		
			<rect x="126.33" y="285.677" style="clip-path:url(#SVGID_00000173155037959250702570000010371699611073887164_);fill:#52A8F2;" width="21.598" height="3.619"/>
		
			<path style="clip-path:url(#SVGID_00000173155037959250702570000010371699611073887164_);fill:none;stroke:#000000;stroke-linecap:round;stroke-miterlimit:10;" d="
			M157.817,268.25h-42.723c-1.239,0-2.243,1.619-2.243,3.616v17.766v1.123v8.347l4.086-4.731h40.88c1.239,0,2.243-1.619,2.243-3.616
			v-18.89C160.06,269.869,159.056,268.25,157.817,268.25z"/>
		
			<circle style="clip-path:url(#SVGID_00000173155037959250702570000010371699611073887164_);fill:#92AB3B;" cx="479.078" cy="171.74" r="2.855"/>
		
			<circle style="clip-path:url(#SVGID_00000173155037959250702570000010371699611073887164_);fill:#92AB3B;" cx="225.078" cy="346.741" r="2.855"/>
		
			<path style="clip-path:url(#SVGID_00000173155037959250702570000010371699611073887164_);fill:none;stroke:#000000;stroke-linecap:round;stroke-miterlimit:10;" d="
			M363.34,253.766c-1.088-3.131-2.176-6.262-3.264-9.393"/>
		
			<path style="clip-path:url(#SVGID_00000173155037959250702570000010371699611073887164_);fill:none;stroke:#000000;stroke-linecap:round;stroke-miterlimit:10;" d="
			M367.093,251.116c0.166-2.053,0.332-4.106,0.498-6.16"/>
		
			<line style="clip-path:url(#SVGID_00000173155037959250702570000010371699611073887164_);fill:none;stroke:#DC4335;stroke-miterlimit:10;" x1="227.56" y1="384.75" x2="245.06" y2="368.25"/>
		
			<line style="clip-path:url(#SVGID_00000173155037959250702570000010371699611073887164_);fill:none;stroke:#DC4335;stroke-miterlimit:10;" x1="238.56" y1="381.75" x2="256.06" y2="365.25"/>
		
			<polyline style="clip-path:url(#SVGID_00000173155037959250702570000010371699611073887164_);fill:none;stroke:#000000;stroke-miterlimit:10;" points="
			263.56,26.75 273.56,16.75 285.56,26.75 296.56,18.75 304.56,26.75 316.56,18.75 		"/>
		
			<polyline style="clip-path:url(#SVGID_00000173155037959250702570000010371699611073887164_);fill:none;stroke:#000000;stroke-miterlimit:10;" points="
			285.56,37.75 295.56,27.75 307.56,37.75 318.56,29.75 326.56,37.75 338.56,29.75 		"/>
		
			<circle style="clip-path:url(#SVGID_00000173155037959250702570000010371699611073887164_);fill:none;stroke:#000000;stroke-miterlimit:10;" cx="18.56" cy="313.75" r="9"/>
		
			<circle style="clip-path:url(#SVGID_00000173155037959250702570000010371699611073887164_);fill:none;stroke:#000000;stroke-miterlimit:10;" cx="208.56" cy="224.75" r="4"/>
		
			<circle style="clip-path:url(#SVGID_00000173155037959250702570000010371699611073887164_);fill:none;stroke:#000000;stroke-miterlimit:10;" cx="306.56" cy="358.75" r="4"/>
		<path style="clip-path:url(#SVGID_00000173155037959250702570000010371699611073887164_);fill:#534741;" d="M66.643,295.244
			c-2.654,3.897-3.884,8.613-4.345,13.306c-0.46,4.693-0.197,9.422-0.114,14.136c0.029,1.653,0.031,3.338-0.459,4.918
			c-0.533,1.719-1.615,3.207-2.37,4.84c-1.21,2.616-1.556,5.537-1.886,8.401c-0.251,2.179-0.365,4.739,1.293,6.176
			c0.804,0.697,1.881,0.975,2.925,1.177c3.214,0.624,6.503,0.738,9.776,0.842c8.983,0.287,17.968,0.522,26.954,0.705
			c0.852,0.017,1.789,0.005,2.432-0.553c0.824-0.713,0.802-1.985,0.622-3.059c-0.796-4.757-3.35-9.169-3.54-13.988
			c-0.124-3.153,0.781-6.269,0.77-9.425c-0.005-1.356-0.178-2.705-0.352-4.05c-0.35-2.717-0.701-5.436-1.196-8.131
			c-0.772-4.198-1.894-8.332-3.352-12.343c-0.262-0.72-0.535-1.439-0.913-2.104c-0.839-1.478-2.153-2.628-3.526-3.629
			c-3.294-2.401-7.913-4.661-12.116-4.388C73.007,288.351,68.914,291.908,66.643,295.244z"/>
		
			<rect x="-3.94" y="390.927" transform="matrix(-1 -1.224647e-16 1.224647e-16 -1 225.1198 819.11)" style="clip-path:url(#SVGID_00000173155037959250702570000010371699611073887164_);fill:#B2B2B2;" width="233" height="37.256"/>
		
			<rect x="79.667" y="409.902" transform="matrix(-1 -1.224647e-16 1.224647e-16 -1 245.202 824.7878)" style="clip-path:url(#SVGID_00000173155037959250702570000010371699611073887164_);fill:#E5E5E5;" width="85.867" height="4.983"/>
		<path style="clip-path:url(#SVGID_00000173155037959250702570000010371699611073887164_);fill:#C28F72;" d="M80.242,394.76
			c0,0,9.955,3.876,11.5,4.6c2.778,1.303,9.821,7.935,9.821,7.935s1.108,0.826,0.515,1.444c-1.187,1.237-12.252-6.313-12.252-6.313
			s12.075,9.008,10.522,10.592c-1.2,1.224-12.439-7.526-12.439-7.526s8.571,8.091,7.745,9.199c-1.024,1.375-9.662-6.516-9.662-6.516
			s6.13,5.74,5.665,6.72c-0.592,1.249-9.332-5.626-9.332-5.626l-4.767-2.244L80.242,394.76z"/>
		
			<path style="clip-path:url(#SVGID_00000173155037959250702570000010371699611073887164_);fill:none;stroke:#000000;stroke-linecap:round;stroke-linejoin:round;stroke-miterlimit:10;" d="
			M80.242,394.76c0,0,9.955,3.876,11.5,4.6c2.778,1.303,9.821,7.935,9.821,7.935s1.108,0.826,0.515,1.444
			c-1.187,1.237-12.252-6.313-12.252-6.313s12.075,9.008,10.522,10.592c-1.2,1.224-12.439-7.526-12.439-7.526
			s8.571,8.091,7.745,9.199c-1.024,1.375-9.662-6.516-9.662-6.516s6.13,5.74,5.665,6.72c-0.592,1.249-9.332-5.626-9.332-5.626
			l-4.192-2.052"/>
		<path style="clip-path:url(#SVGID_00000173155037959250702570000010371699611073887164_);fill:#C28F72;" d="M21.784,400.699
			c6.896,8.054,56.156,6.708,56.156,6.708l2.301-12.65l-20.697-3.061h72.829c0,0-12.809-46.386-17.071-52.284
			c-0.13-0.181-0.253-0.326-0.369-0.427c-2.359-2.128-14.755-4.4-23.931-5.825c-5.717-0.897-10.182-1.462-10.182-1.462
			s-4.523,0.376-10.355,0.941c-9.82,0.955-23.374,2.461-25.299,3.662c-0.26,0.159-0.673,0.709-1.208,1.578
			C38.059,347.372,17.211,395.365,21.784,400.699z"/>
		<path style="clip-path:url(#SVGID_00000173155037959250702570000010371699611073887164_);fill:#DC4335;" d="M43.639,389.106
			L59.559,392l51.98-0.304l-7.475-32.622l11.238-19.662c-0.13-0.181-0.253-0.326-0.369-0.427c-2.359-2.128-14.755-4.4-23.931-5.825
			c-5.717-0.897-10.182-1.462-10.182-1.462s-4.523,0.376-10.355,0.941c-9.82,0.955-23.374,2.461-25.299,3.662
			c-0.26,0.159-0.673,0.709-1.208,1.578l9.813,23.005L43.639,389.106z"/>
		
			<rect x="187.843" y="412.533" transform="matrix(-1 -1.224647e-16 1.224647e-16 -1 385.8169 914.7823)" style="clip-path:url(#SVGID_00000173155037959250702570000010371699611073887164_);fill:#B2B2B2;" width="10.131" height="89.717"/>
		
			<rect x="20.482" y="408.644" transform="matrix(-1 -1.224647e-16 1.224647e-16 -1 51.0946 908.8942)" style="clip-path:url(#SVGID_00000173155037959250702570000010371699611073887164_);fill:#B2B2B2;" width="10.131" height="91.606"/>
		
			<polyline style="clip-path:url(#SVGID_00000173155037959250702570000010371699611073887164_);fill:none;stroke:#000000;stroke-linecap:round;stroke-linejoin:round;stroke-miterlimit:10;" points="
			53.792,360.643 43.825,389.394 80.242,394.76 		"/>
		<path style="clip-path:url(#SVGID_00000173155037959250702570000010371699611073887164_);fill:#534741;" d="M91.703,297.548
			c-0.202-0.66-0.492-1.299-0.579-1.983c-0.087-0.684,0.072-1.454,0.615-1.88c0.07-0.055,0.146-0.103,0.232-0.123
			c0.341-0.079,0.6,0.295,0.743,0.615c1.313,2.945,2.054,6.129,2.095,9.35c0.01,0.755-0.83,12.357-2.3,11.5
			c-1.061-0.618-0.08-11.413-0.182-12.482C92.169,300.875,92.199,299.166,91.703,297.548z"/>
		<path style="clip-path:url(#SVGID_00000173155037959250702570000010371699611073887164_);fill:#C28F72;" d="M82.421,288.014
			c-13.1-0.783-12.997,37.096,2.421,38.129C100.26,327.177,97.043,288.887,82.421,288.014z"/>
		<path style="clip-path:url(#SVGID_00000173155037959250702570000010371699611073887164_);fill:#C28F72;" d="M72.576,332.438
			V311.96l15.909,2.289v18.524c0.803,0.12,1.646,0.249,2.519,0.385c-1.388,1.633-3.86,5.252-9.61,5.635
			c-8.797,0.586-9.472-4.65-10.925-6.153C71.192,332.57,71.897,332.503,72.576,332.438z"/>
		<path style="clip-path:url(#SVGID_00000173155037959250702570000010371699611073887164_);fill:#C28F72;" d="M74.492,305.251
			c0,0-2.492-2.875-4.6-1.533c-3.461,2.202-0.192,7.092,1.342,8.242c1.533,1.15,3.258,0.575,3.258,0.575V305.251z"/>
		
			<path style="clip-path:url(#SVGID_00000173155037959250702570000010371699611073887164_);fill:none;stroke:#000000;stroke-linecap:round;stroke-miterlimit:10;" d="
			M86.184,305.251c0.037,2.945,0.767,5.75,1.66,6.788c0.183,0.212-1.363,0.239-2.05,0.177"/>
		
			<path style="clip-path:url(#SVGID_00000173155037959250702570000010371699611073887164_);fill:none;stroke:#000000;stroke-linecap:round;stroke-miterlimit:10;" d="
			M83.348,303.433c-1.762-0.696-3.87-0.433-5.407,0.674"/>
		
			<path style="clip-path:url(#SVGID_00000173155037959250702570000010371699611073887164_);fill:none;stroke:#000000;stroke-linecap:round;stroke-miterlimit:10;" d="
			M88.422,302.961c1.329-0.516,2.746-0.776,4.662-0.01"/>
		
			<path style="clip-path:url(#SVGID_00000173155037959250702570000010371699611073887164_);fill:none;stroke:#000000;stroke-linecap:round;stroke-miterlimit:10;" d="
			M88.943,318.16c-0.685,0.791-1.766,1.198-2.809,1.126c-1.043-0.072-2.034-0.6-2.732-1.378"/>
		
			<path style="clip-path:url(#SVGID_00000173155037959250702570000010371699611073887164_);fill:none;stroke:#000000;stroke-linecap:round;stroke-miterlimit:10;" d="
			M69.984,305.946c-0.163,0.505-0.036,1.056,0.131,1.56c0.437,1.323,1.17,2.589,2.291,3.414"/>
		
			<path style="clip-path:url(#SVGID_00000173155037959250702570000010371699611073887164_);fill:none;stroke:#000000;stroke-linecap:round;stroke-miterlimit:10;" d="
			M72.894,308.482c-0.548,0.047-1.011,0.532-1.08,1.078c-0.069,0.546,0.229,1.107,0.695,1.399"/>
		<path style="clip-path:url(#SVGID_00000173155037959250702570000010371699611073887164_);" d="M80.817,307.36
			c0,0.529,0.343,0.958,0.767,0.958c0.423,0,0.767-0.429,0.767-0.958s-0.343-0.958-0.767-0.958
			C81.16,306.401,80.817,306.83,80.817,307.36z"/>
		<path style="clip-path:url(#SVGID_00000173155037959250702570000010371699611073887164_);" d="M89.442,307.168
			c0,0.529,0.343,0.958,0.767,0.958c0.424,0,0.767-0.429,0.767-0.958c0-0.529-0.343-0.958-0.767-0.958
			C89.786,306.21,89.442,306.639,89.442,307.168z"/>
		
			<path style="clip-path:url(#SVGID_00000173155037959250702570000010371699611073887164_);fill:none;stroke:#000000;stroke-linecap:round;stroke-miterlimit:10;" d="
			M77.875,322.302c1.813,2.214,4.131,3.651,6.967,3.841c1.33,0.089,2.522-0.114,3.58-0.561"/>
		<path style="clip-path:url(#SVGID_00000173155037959250702570000010371699611073887164_);fill:#534741;" d="M87.523,297.568
			c-1.144,1.326-3.09,1.762-4.807,1.416c-0.645-0.13-1.276-0.358-1.934-0.384c-0.894-0.035-1.796,0.329-2.416,0.975
			c-0.402,0.419-0.68,0.937-0.997,1.423c-0.876,1.339-2.083,2.459-3.485,3.231c-0.208,0.115-0.433,0.225-0.67,0.219
			c-0.184-0.005-0.359-0.079-0.522-0.165c-0.951-0.499-1.643-1.414-2.017-2.42c-0.374-1.007-0.454-2.103-0.395-3.175
			c0.062-1.141,0.284-2.292,0.817-3.303c0.814-1.543,2.278-2.635,3.264-4.074c0.592-0.865,1.018-1.862,1.784-2.577
			c1.207-1.128,2.986-1.327,4.633-1.464c1.28-0.107,2.571-0.211,3.844-0.047c2.88,0.371,5.514,2.167,7.027,4.646
			c0.757,1.239,1.243,2.621,1.724,3.991c0.446,1.269,0.897,2.577,0.834,3.921c-0.017,0.369,0.305,2.188,0.09,2.488
			s0.724,2.171-1.35-1.074c-0.095-0.149-0.3-0.186-0.424-0.313c-1.686-1.733-2.138-4.22-3.323-6.258
			c-0.191-0.329-0.64-1.25-1.021-1.392c-0.655-0.244-0.04,0.622,0.061,0.954C88.585,295.325,88.301,296.665,87.523,297.568z"/>
		<path style="clip-path:url(#SVGID_00000173155037959250702570000010371699611073887164_);fill:#C17C59;" d="M76.927,313.122
			c0,1.199,1.296,2.171,2.895,2.171c1.599,0,2.895-0.972,2.895-2.171s-1.296-2.171-2.895-2.171
			C78.223,310.951,76.927,311.923,76.927,313.122z"/>
		<path style="clip-path:url(#SVGID_00000173155037959250702570000010371699611073887164_);fill:#C17C59;" d="M89.229,312.398
			c0,1.199,1.296,2.171,2.895,2.171c1.599,0,2.895-0.972,2.895-2.171s-1.296-2.171-2.895-2.171
			C90.525,310.227,89.229,311.199,89.229,312.398z"/>
		<path style="clip-path:url(#SVGID_00000173155037959250702570000010371699611073887164_);fill:#FACB42;" d="M70.414,313.122
			c0,0.799,0.648,1.447,1.447,1.447s1.447-0.648,1.447-1.447c0-0.799-0.648-1.447-1.447-1.447S70.414,312.323,70.414,313.122z"/>
		
			<line style="clip-path:url(#SVGID_00000173155037959250702570000010371699611073887164_);fill:none;stroke:#000000;stroke-linecap:round;stroke-miterlimit:10;" x1="104.064" y1="359.074" x2="110.577" y2="391.638"/>
		
			<rect x="106.501" y="348.423" transform="matrix(-1 -1.224647e-16 1.224647e-16 -1 315.5608 763.3084)" style="clip-path:url(#SVGID_00000173155037959250702570000010371699611073887164_);fill:#E5E5E5;" width="102.559" height="66.463"/>
		<path style="clip-path:url(#SVGID_00000173155037959250702570000010371699611073887164_);fill:#534741;" d="M368.464,275.805
			c0.27-0.879,0.656-1.732,0.772-2.644c0.116-0.912-0.096-1.938-0.82-2.506c-0.093-0.073-0.195-0.138-0.31-0.164
			c-0.454-0.106-0.8,0.393-0.99,0.819c-1.75,3.925-2.738,8.171-2.793,12.464c-0.013,1.006,1.107,16.472,3.066,15.33
			c1.414-0.824,0.107-15.214,0.242-16.64C367.842,280.239,367.803,277.962,368.464,275.805z"/>
		<path style="clip-path:url(#SVGID_00000173155037959250702570000010371699611073887164_);fill:#EECCC1;" d="M380.836,263.095
			c17.463-1.043,17.326,49.45-3.227,50.828C357.056,315.301,361.346,264.26,380.836,263.095z"/>
		<path style="clip-path:url(#SVGID_00000173155037959250702570000010371699611073887164_);fill:#EECCC1;" d="M393.961,322.315
			v-27.299l-21.207,3.052v24.693c-1.07,0.16-2.194,0.331-3.357,0.513c1.85,2.177,4.997,7.465,12.662,7.976
			c11.727,0.782,12.775-6.662,14.712-8.666C395.805,322.49,394.866,322.4,393.961,322.315z"/>
		<path style="clip-path:url(#SVGID_00000173155037959250702570000010371699611073887164_);fill:#534741;" d="M367.64,272.933
			c0.76,1.146,2.214,1.646,3.588,1.7c1.077,0.043,2.168-0.144,3.147-0.595c0.987-0.455,1.835-1.164,2.789-1.684
			s2.109-0.848,3.125-0.462c1.346,0.511,2.212,2.167,3.652,2.155c1.29-0.011,2.194-1.396,3.467-1.603
			c0.974-0.158,1.928,0.421,2.601,1.144c1.03,1.106,1.628,2.606,1.641,4.118c0.008,1.012-0.234,2.01-0.283,3.021
			c-0.071,1.44,0.249,2.868,0.568,4.275c0.116,0.512,0.238,1.039,0.537,1.47c0.299,0.432,0.822,0.751,1.338,0.654
			c0.908-0.171,1.141-1.346,1.165-2.269c0.087-3.274,0.083-6.55,0.079-9.825c-0.002-1.423-0.006-2.865-0.386-4.236
			c-0.276-0.997-0.744-1.93-1.208-2.854c-0.504-1.002-1.013-2.014-1.729-2.877c-1.445-1.741-3.595-2.723-5.717-3.508
			c-2.143-0.793-4.362-1.448-6.643-1.584c-2.281-0.137-4.642,0.275-6.58,1.486C369.684,263.398,365.056,269.037,367.64,272.933z"/>
		<path style="clip-path:url(#SVGID_00000173155037959250702570000010371699611073887164_);fill:#EECCC1;" d="M391.406,286.073
			c0,0,3.322-3.832,6.132-2.044c4.613,2.936,0.255,9.453-1.789,10.986c-2.044,1.533-4.343,0.767-4.343,0.767V286.073z"/>
		
			<path style="clip-path:url(#SVGID_00000173155037959250702570000010371699611073887164_);fill:none;stroke:#000000;stroke-linecap:round;stroke-miterlimit:10;" d="
			M375.821,286.073c-0.05,3.925-1.022,7.665-2.212,9.049c-0.243,0.283,1.817,0.318,2.732,0.236"/>
		
			<path style="clip-path:url(#SVGID_00000173155037959250702570000010371699611073887164_);fill:none;stroke:#000000;stroke-linecap:round;stroke-miterlimit:10;" d="
			M379.63,283.139c2.215-1.212,5.047-1.212,7.263-0.002"/>
		
			<path style="clip-path:url(#SVGID_00000173155037959250702570000010371699611073887164_);fill:none;stroke:#000000;stroke-linecap:round;stroke-miterlimit:10;" d="
			M372.838,283.021c-1.771-0.688-3.66-1.035-6.215-0.013"/>
		
			<path style="clip-path:url(#SVGID_00000173155037959250702570000010371699611073887164_);stroke:#000000;stroke-linecap:round;stroke-linejoin:round;stroke-miterlimit:10;" d="
			M379.53,302.945c-0.931,1.038-2.251,1.742-3.642,1.837c-1.391,0.095-2.832-0.447-3.745-1.501L379.53,302.945z"/>
		
			<path style="clip-path:url(#SVGID_00000173155037959250702570000010371699611073887164_);fill:none;stroke:#000000;stroke-linecap:round;stroke-miterlimit:10;" d="
			M397.417,287c0.218,0.674,0.048,1.408-0.174,2.08c-0.582,1.763-1.559,3.45-3.054,4.55"/>
		
			<path style="clip-path:url(#SVGID_00000173155037959250702570000010371699611073887164_);fill:none;stroke:#000000;stroke-linecap:round;stroke-miterlimit:10;" d="
			M393.537,290.38c0.73,0.063,1.347,0.709,1.44,1.437c0.092,0.727-0.306,1.476-0.927,1.865"/>
		
			<ellipse style="clip-path:url(#SVGID_00000173155037959250702570000010371699611073887164_);" cx="381.953" cy="288.884" rx="1.022" ry="1.278"/>
		
			<ellipse style="clip-path:url(#SVGID_00000173155037959250702570000010371699611073887164_);" cx="370.455" cy="288.629" rx="1.022" ry="1.278"/>
		
			<path style="clip-path:url(#SVGID_00000173155037959250702570000010371699611073887164_);fill:none;stroke:#000000;stroke-linecap:round;stroke-miterlimit:10;" d="
			M386.897,308.803c-2.417,2.951-5.507,4.867-9.287,5.12c-1.774,0.119-3.362-0.152-4.772-0.749"/>
		
			<polyline style="clip-path:url(#SVGID_00000173155037959250702570000010371699611073887164_);fill:#0468BF;stroke:#000000;stroke-linecap:round;stroke-linejoin:round;stroke-miterlimit:10;" points="
			378.56,400.25 378.56,330.75 388.56,330.75 388.56,400.25 		"/>
		<path style="clip-path:url(#SVGID_00000173155037959250702570000010371699611073887164_);fill:#534741;" d="M365.803,258.826
			c0.442,0.369-1.241,2.099,2.313,5.462c0.118-2.262,1.233-4.453,2.992-5.88c0.301,0.134-1.16,2.314,1.659,4.152
			c0.209-1.91,1.332-3.699,2.961-4.718c-0.904,0.815,1.647,6.368,3.24,2.571C400.351,265.065,355.558,286.879,365.803,258.826z"/>
		
			<path style="clip-path:url(#SVGID_00000173155037959250702570000010371699611073887164_);fill:#0468BF;stroke:#000000;stroke-linecap:round;stroke-linejoin:round;stroke-miterlimit:10;" d="
			M394.56,321.75c-1.361,4.035-5.066,7.021-10.818,9.092l5.318,8.408l15.5-15.5"/>
		
			<path style="clip-path:url(#SVGID_00000173155037959250702570000010371699611073887164_);fill:#0468BF;stroke:#000000;stroke-linecap:round;stroke-linejoin:round;stroke-miterlimit:10;" d="
			M372.56,321.75c1.634,4.09,5.071,7.281,11.276,9.092l-5.318,8.408l-14.957-14.5"/>
		
			<circle style="clip-path:url(#SVGID_00000173155037959250702570000010371699611073887164_);fill:#FFFFFF;" cx="383.56" cy="351.75" r="1.5"/>
		
			<circle style="clip-path:url(#SVGID_00000173155037959250702570000010371699611073887164_);fill:#FFFFFF;" cx="384.06" cy="337.25" r="1.5"/>
		
			<circle style="clip-path:url(#SVGID_00000173155037959250702570000010371699611073887164_);fill:#FFFFFF;" cx="384.06" cy="373.25" r="1.5"/>
		
			<circle style="clip-path:url(#SVGID_00000173155037959250702570000010371699611073887164_);fill:#FFFFFF;" cx="384.06" cy="396.25" r="1.5"/>
		
			<polygon style="clip-path:url(#SVGID_00000173155037959250702570000010371699611073887164_);fill:#0468BF;stroke:#000000;stroke-linecap:round;stroke-linejoin:round;stroke-miterlimit:10;" points="
			383.06,402.25 392.06,423.75 401.06,423.75 392.06,402.25 		"/>
		<g style="clip-path:url(#SVGID_00000173155037959250702570000010371699611073887164_);">
			<path style="fill:#E5E5E5;stroke:#000000;stroke-linecap:round;stroke-miterlimit:10;" d="M449.348,70.035V189.15
				c0,5.939-2.766,11.244-7.073,14.659c-2.75,2.221-6.136,3.657-9.853,4.02c-0.604,0.06-1.224,0.091-1.859,0.091h-152.68
				c-0.801,0-1.572-0.045-2.342-0.151c-9.279-1.149-16.442-9.052-16.442-18.618V70.035c0-10.382,8.403-18.785,18.785-18.785h152.68
				C440.945,51.25,449.348,59.653,449.348,70.035z"/>
			<g>
				<path style="fill:#FACB42;" d="M430.095,169.353l-1.088,0.725l-23.5,15.974l-0.635,0.453l-0.453,7.133l-0.922,14.281h-95.646
					l-0.514-5.864l-1.36-15.551l-0.317-0.181l-23.485-12.634l-2.433-1.315c0,0,17.787-40.41,20.825-42.088
					c1.103-0.605,2.191-1.194,3.249-1.723c0-0.015,0-0.015,0-0.015c0.196-0.091,0.378-0.181,0.559-0.272
					c16.231-8.251,28.2-9.415,41.469-9.657c3.582-0.076,7.254-0.076,11.138-0.121c2.448-0.03,4.836,0.03,7.148,0.166
					c14.886,0.877,27.157,4.972,35.695,9.309C411.31,133.824,430.095,169.353,430.095,169.353z"/>
				<path style="fill:#42210B;" d="M381.658,112.845c0,0-3.027-48.432-15.135-53.477c-7.913-3.297-10.654-1.423-11.604,0.272
					c-0.95-1.694-3.69-3.569-11.604-0.272c-12.108,5.045-15.135,53.477-15.135,53.477l27.243,4.036L381.658,112.845z"/>
				<path style="fill:#8F604C;" d="M346.456,103.247l17.676,3.467v12.982c0.374,0.212-2.653,3.239-8.708,3.239
					c-5.045,0-9.553-3.898-9.553-3.898C345.698,118.673,346.456,103.247,346.456,103.247z"/>
				<path style="fill:#8F604C;" d="M355.77,60.21c-17.768-3.121-23.561,48.627-2.666,52.454
					C373.999,116.49,375.601,63.693,355.77,60.21z"/>
				<path style="fill:#8F604C;" d="M342.241,82.51c0,0-2.953-4.317-6.042-2.815c-5.071,2.465-1.373,9.655,0.541,11.466
					c1.914,1.811,4.36,1.296,4.36,1.296L342.241,82.51z"/>
				<path style="fill:none;stroke:#000000;stroke-linecap:round;stroke-miterlimit:10;" d="M355.161,82.593
					c0.07,4.048-0.817,7.933-2.002,9.396c-0.242,0.299,1.883,0.272,2.824,0.16"/>
				<path style="fill:none;stroke:#000000;stroke-linecap:round;stroke-miterlimit:10;" d="M351.73,80.024
					c-2.414-0.975-5.315-0.636-7.439,0.87"/>
				<path style="fill:none;stroke:#000000;stroke-linecap:round;stroke-miterlimit:10;" d="M335.974,82.753
					c-0.302,0.665-0.215,1.437-0.066,2.152c0.389,1.874,1.192,3.718,2.595,5.021"/>
				<path style="fill:none;stroke:#000000;stroke-linecap:round;stroke-miterlimit:10;" d="M339.551,86.672
					c-0.756-0.021-1.464,0.569-1.644,1.303c-0.18,0.734,0.14,1.548,0.73,2.02"/>
				<path style="fill:#8F604C;" d="M366.934,82.51c0,0,2.953-4.317,6.042-2.815c5.071,2.465,1.373,9.655-0.541,11.466
					c-1.914,1.811-4.36,1.296-4.36,1.296L366.934,82.51z"/>
				<path style="fill:none;stroke:#000000;stroke-linecap:round;stroke-miterlimit:10;" d="M373.2,82.753
					c0.302,0.665,0.215,1.437,0.066,2.152c-0.389,1.874-1.192,3.718-2.595,5.021"/>
				<path style="fill:none;stroke:#000000;stroke-linecap:round;stroke-miterlimit:10;" d="M369.623,86.672
					c0.756-0.021,1.464,0.569,1.644,1.303c0.18,0.734-0.14,1.548-0.73,2.02"/>
				<path d="M347.52,84.104c-0.083,0.723,0.319,1.363,0.897,1.429c0.578,0.066,1.114-0.466,1.197-1.189
					c0.083-0.723-0.319-1.363-0.897-1.429C348.139,82.849,347.603,83.381,347.52,84.104z"/>
				<path style="fill:#8E4830;" d="M355.981,101.696c1.051-0.965,2.981,1.137,2.981,1.137s-1.137,2.981-3.153,2.895
					c-2.016-0.086-3.17-3.307-3.17-3.307S354.008,100.602,355.981,101.696L355.981,101.696z"/>
				<path style="fill:none;stroke:#000000;stroke-linecap:round;stroke-miterlimit:10;" d="M359.717,101.739
					c-0.866,1.148-2.311,1.807-3.749,1.805c-1.438-0.002-2.846-0.634-3.875-1.637"/>
				<path style="fill:none;stroke:#000000;stroke-linecap:round;stroke-miterlimit:10;" d="M358.759,80.024
					c2.415-0.975,5.315-0.636,7.44,0.87"/>
				<path d="M362.97,84.104c0.083,0.723-0.319,1.363-0.897,1.429c-0.578,0.066-1.114-0.466-1.197-1.189
					c-0.083-0.723,0.319-1.363,0.897-1.429C362.351,82.849,362.887,83.381,362.97,84.104z"/>
				<path style="fill:none;stroke:#000000;stroke-linecap:round;stroke-miterlimit:10;" d="M415.909,184.168"/>
				<path style="fill:none;stroke:#000000;stroke-linecap:round;stroke-miterlimit:10;" d="M342.663,121.026"/>
				<path style="fill:none;stroke:#000000;stroke-linecap:round;stroke-miterlimit:10;" d="M368.445,119.435"/>
				<path style="fill:#42210B;" d="M364.887,73.981c0.889-1.268,2.838,2.242,6.417,3.032c-7.246-14.561-7.939-19.232-18.593-17.187
					c-10.916-1.363-9.168,10.361-12.521,15.329c7.663-2.144,11.112-2.035-0.491,1.281c1.983,1.106,16.594-3.844,6.602,0.411
					c5.573-0.1,8.258-6.02,12.15-6.38c2.376-0.22,4.93,3.636,9.655,6.314C366.849,76.102,365.723,75.217,364.887,73.981z"/>
				<path style="fill:#8F604C;" d="M313.397,207.92h-35.514c-0.801,0-1.572-0.045-2.342-0.151
					c-1.466-8.599,1.829-21.309,6.634-34.079l23.485,12.634c-1.103,5.032-1.39,9.445-0.227,12.392
					c0.438,1.133,1.088,2.252,1.904,3.34C308.833,204.066,310.903,206.031,313.397,207.92z"/>
				<path style="fill:#8F604C;" d="M433.555,205.789c-0.302,0.68-0.68,1.36-1.133,2.04c-0.604,0.06-1.224,0.091-1.859,0.091h-43.267
					c6.695-3.612,12.468-7.662,15.641-11.909c0.59-0.786,1.073-1.572,1.481-2.373c0.151-0.332,0.302-0.65,0.423-0.967
					c0.695-1.753,0.877-4.005,0.665-6.619l23.5-15.974C434.099,184.224,437.077,197.976,433.555,205.789z"/>
				
					<line style="fill:none;stroke:#000000;stroke-linecap:round;stroke-miterlimit:10;" x1="319.605" y1="155.728" x2="306.488" y2="185.998"/>
				
					<line style="fill:none;stroke:#000000;stroke-linecap:round;stroke-miterlimit:10;" x1="392.253" y1="160.773" x2="405.37" y2="185.998"/>
				
					<line style="fill:none;stroke:#000000;stroke-linecap:round;stroke-miterlimit:10;" x1="392.253" y1="152.701" x2="392.253" y2="157.746"/>
				
					<line style="fill:none;stroke:#000000;stroke-linecap:round;stroke-miterlimit:10;" x1="386.199" y1="158.755" x2="390.235" y2="158.755"/>
				
					<line style="fill:none;stroke:#000000;stroke-linecap:round;stroke-miterlimit:10;" x1="319.605" y1="153.71" x2="324.65" y2="151.692"/>
			</g>
		</g>
		<path style="clip-path:url(#SVGID_00000173155037959250702570000010371699611073887164_);fill:#DC4335;" d="M451.167,45.902
			c0,1.297-8.62,2.348-19.254,2.348c-10.634,0-19.254-1.051-19.254-2.348c0-1.297,8.62-2.348,19.254-2.348
			C442.546,43.554,451.167,44.605,451.167,45.902z"/>
		<path style="clip-path:url(#SVGID_00000173155037959250702570000010371699611073887164_);fill:#DC4335;" d="M431.409,9.25
			c-7.264,0-13.153,5.889-13.153,13.153c0,6.84,13.153,23.149,13.153,23.149s12.627-14.731,13.153-23.149
			C445.015,15.153,438.673,9.25,431.409,9.25z M431.464,28.503c-3.592,0-6.504-2.912-6.504-6.503c0-3.592,2.912-6.504,6.504-6.504
			s6.504,2.912,6.504,6.504C437.968,25.592,435.056,28.503,431.464,28.503z"/>
		<path style="clip-path:url(#SVGID_00000173155037959250702570000010371699611073887164_);fill:#DC4335;" d="M245.167,482.902
			c0,1.297-8.62,2.348-19.254,2.348c-10.634,0-19.254-1.051-19.254-2.348c0-1.297,8.62-2.348,19.254-2.348
			C236.546,480.554,245.167,481.605,245.167,482.902z"/>
		<path style="clip-path:url(#SVGID_00000173155037959250702570000010371699611073887164_);fill:#DC4335;" d="M225.409,446.25
			c-7.264,0-13.153,5.889-13.153,13.153c0,6.84,13.153,23.149,13.153,23.149s12.627-14.731,13.153-23.149
			C239.015,452.153,232.673,446.25,225.409,446.25z M225.464,465.503c-3.592,0-6.504-2.912-6.504-6.504
			c0-3.592,2.912-6.504,6.504-6.504c3.592,0,6.504,2.912,6.504,6.504C231.968,462.592,229.056,465.503,225.464,465.503z"/>
		<path style="clip-path:url(#SVGID_00000173155037959250702570000010371699611073887164_);fill:#92AB3B;" d="M81.694,91.313
			c0,1.069-7.11,1.937-15.88,1.937s-15.88-0.867-15.88-1.937c0-1.07,7.11-1.937,15.88-1.937S81.694,90.244,81.694,91.313z"/>
		<path style="clip-path:url(#SVGID_00000173155037959250702570000010371699611073887164_);fill:#92AB3B;" d="M65.426,38.25
			c-10.696,0-19.366,8.671-19.366,19.366c0,10.07,19.366,34.084,19.366,34.084s18.591-21.69,19.366-34.084
			C85.46,46.941,76.122,38.25,65.426,38.25z M65.813,59.94c-2.781,0-5.035-2.254-5.035-5.035s2.254-5.035,5.035-5.035
			s5.035,2.254,5.035,5.035S68.594,59.94,65.813,59.94z"/>
		<g style="clip-path:url(#SVGID_00000173155037959250702570000010371699611073887164_);">
			<text transform="matrix(1 0 0 1 106.5012 93.4243)" style="font-family:'BebasNeue-Regular'; font-size:23.5826px;">London</text>
		</g>
		<g style="clip-path:url(#SVGID_00000173155037959250702570000010371699611073887164_);">
			<text transform="matrix(1 0 0 1 363.5012 48.4243)" style="font-family:'BebasNeue-Regular'; font-size:23.5826px;">Tokio</text>
		</g>
		
			<rect x="273.843" y="436.533" transform="matrix(-1 -1.224647e-16 1.224647e-16 -1 557.8169 962.7823)" style="clip-path:url(#SVGID_00000173155037959250702570000010371699611073887164_);fill:#B2B2B2;" width="10.131" height="89.717"/>
		
			<path style="clip-path:url(#SVGID_00000173155037959250702570000010371699611073887164_);fill:#FFFFFF;stroke:#000000;stroke-linecap:round;stroke-miterlimit:10;" d="
			M307.425,78.66c0-3.191-2.587-5.779-5.779-5.779h-90.081c-3.191,0-5.779,2.587-5.779,5.779v19.848
			c0,3.191,2.587,5.778,5.779,5.778h85.865l9.994,6.852V98.576l-0.004,0.002c0-0.024,0.004-0.047,0.004-0.07V78.66z"/>
		
			<circle style="clip-path:url(#SVGID_00000173155037959250702570000010371699611073887164_);fill:#0468BF;" cx="221.56" cy="88.75" r="5"/>
		
			<circle style="clip-path:url(#SVGID_00000173155037959250702570000010371699611073887164_);fill:#0468BF;" cx="241.06" cy="89.25" r="5"/>
		
			<circle style="clip-path:url(#SVGID_00000173155037959250702570000010371699611073887164_);fill:#0468BF;" cx="260.56" cy="89.75" r="5"/>
		
			<circle style="clip-path:url(#SVGID_00000173155037959250702570000010371699611073887164_);fill:#0468BF;" cx="280.06" cy="90.25" r="5"/>
	</g>
</g>
</svg>
